<svg fill="none" height="91" viewBox="0 0 128 91" width="128" xmlns="http://www.w3.org/2000/svg" xmlns:xlink="http://www.w3.org/1999/xlink"><clipPath id="a"><path d="m0 0h90v127.742h-90z" transform="matrix(-.00000004 -1 -1 .00000004 127.742 90.5499)"/></clipPath><mask id="b" height="66" maskUnits="userSpaceOnUse" width="72" x="56" y="25"><path d="m56.9393 25.885h70.6777v38.7608c0 5.2231-.927 9.5528-2.782 12.989-1.854 3.505-4.464 6.1166-7.83 7.8347-3.297 1.7181-7.109 2.5772-11.436 2.5772-4.602 0-8.6887-1.0309-12.2604-3.0926-3.5029-2.0618-6.1817-5.0513-8.0362-8.9686l-28.3331 14.4322v-17.0095l25.7574-12.4735v-19.69h-25.7574zm37.9148 15.3597v21.3393c0 3.0927.9272 5.498 2.7817 7.2162 1.9232 1.7181 4.4992 2.5772 7.7272 2.5772 2.061 0 3.812-.378 5.254-1.134 1.512-.756 2.645-1.8556 3.4-3.2988.756-1.4432 1.134-3.2301 1.134-5.3606v-21.3393z" fill="#11bb8d"/></mask><g clip-path="url(#a)"><path d="m56.9393 25.8841h70.6777v38.761c0 5.2231-.927 9.5527-2.782 12.989-1.854 3.505-4.464 6.1166-7.83 7.8347-3.297 1.7181-7.109 2.5772-11.436 2.5772-4.602 0-8.6887-1.0309-12.2604-3.0927-3.5029-2.0617-6.1817-5.0513-8.0362-8.9686l-28.3331 14.4323v-17.0095l25.7574-12.4736v-19.6896h-25.7574zm37.9148 15.3602v21.339c0 3.0926.9272 5.498 2.7817 7.2162 1.9232 1.7181 4.4992 2.5771 7.7272 2.5771 2.061 0 3.812-.3779 5.254-1.1339 1.512-.756 2.645-1.8556 3.4-3.2988.756-1.4433 1.134-3.2301 1.134-5.3606v-21.339z" fill="#000"/><g mask="url(#b)"><path d="m133.799 60.9339v42.2661h-79.3321v-42.2661z" fill="#000"/></g><path clip-rule="evenodd" d="m15.7277 32.6875c0-9.1097 7.3803-16.4942 16.4848-16.4942 9.104 0 16.4844 7.3845 16.4844 16.4942 0 9.1093-7.3804 16.4938-16.4844 16.4938-9.1045 0-16.4848-7.3845-16.4848-16.4938zm-15.454107 0c-.000001-17.6495 14.299507-31.957184 31.938907-31.957185 17.6393 0 31.9389 14.307685 31.9389 31.957185 0 17.6494-14.2996 31.957-31.9389 31.957-17.6394 0-31.938907-14.3075-31.938907-31.957z" fill="#000" fill-rule="evenodd"/></g></svg>