<svg fill="none" viewBox="0 0 106 35" xmlns="http://www.w3.org/2000/svg"><g fill="#000"><path d="m15.36 17c-1.36-1.64-3.6-3.52-5.40002-4.6l.08002-.2c.72.24 1.4.32 2.44.32 3.36 0 6.92-1.76 6.92-5.91998 0-3.8-2.84-6.08-7.56-6.08h-11.240024v1.04c1.480004 0 2.200004.32 2.200004 1.76v19.87998c0 1.44-.72 1.76-2.200004 1.76v1.04h8.400004v-1.04c-1.48 0-2.2-.32-2.2-1.76v-11.68l9.36002 12.24c.92 1.16.56 1.2-1.96 1.2v1.04h8.12v-.76zm-8.56002-14.23998h4.08002c3.28 0 4.4 1.64 4.4 4.24 0 2.2-1.24 3.91998-3.96 3.91998-2.28002 0-4.52002-1.59998-4.52002-4.15998z"/><path d="m38.9509 20.6c-.68 1.4-2.12 3.44-5.32 3.44-3.68 0-5.92-2.4-6.04-7l11.88-.36c.08-.64.08-1.12.08-1.96 0-4.44-2.56-7.15998-7.32-7.15998-5.08 0-8.32 3.15998-8.32 9.27998 0 6.28 3.52 9.44 8.8 9.44 4.64 0 6.4-3.44 7.04-5.36zm-6.6-11.11998c2.28 0 3.6 1.79998 3.6 3.83998 0 .68-.08 1.24-.2 1.76l-8.12.64c.24-4.52 2.16-6.23998 4.72-6.23998z"/><path d="m59.1931 14.2c0-4.27998-1.76-6.63998-5.56-6.63998-3.52 0-5.24 2.55998-5.56 5.19998h-.08v-4.83998h-5.68v1.04c1.24 0 1.84.32 1.84 1.75998v12.48c0 1.44-.6 1.76-1.84 1.76v1.04h7.52v-1.04c-1.24 0-1.84-.32-1.84-1.76v-4.4c0-7.04 2.2-9.03998 4.48-9.03998 2.32 0 2.88 1.67998 2.88 5.15998v8.28c0 1.44-.6 1.76-1.84 1.76v1.04h7.52v-1.04c-1.24 0-1.84-.32-1.84-1.76z"/><path d="m74.8312 7.92002h-3.12l-3.24.68v-6.24h-1.36c-.32 3.68-1.76 5.76-5.44 6.24v1.55998h2.96v10.4c0 3.68 1.8 5.72 5.04 5.72 4.4 0 4.84-3.56 4.88-5.44h-.8c-.16 1.36-.68 3-2.56 3-1.68 0-2.72-1.12-2.72-3.04v-10.64h6.36z"/><path d="m82.7959.52002h-5.68v1.04c1.24 0 1.84.32 1.84 1.76v19.87998c0 1.44-.6 1.76-1.84 1.76v1.04h7.52v-1.04c-1.24 0-1.84-.32-1.84-1.76z"/><path d="m105.151 7.92002h-8.3204v1.04c2.8 0 3.6804.24 3.2004 1.63998l-4.2004 12.88-5.04-15.55998h-5.88v1.04c1.24 0 2.24.24 2.72 1.63998l5 15.4h2.4l-1.08 3.28c-.72 2.2-1.36 2.84-2.56 2.84-1.08 0-2.2-.92-1.96-3.08l-3.44-.28c-.36 2.96 1.2 5.4 5.08 5.4 2.6 0 4-.84 5.28-4.88l6.0804-18.68c.48-1.39998 1.48-1.63998 2.72-1.63998z"/></g></svg>