<svg viewBox="0 0 30 30" fill="none" xmlns="http://www.w3.org/2000/svg">
<path d="M16 0V4.03L20.026 1.706L21.026 3.438L16 6.339V13.267L22 9.803V4H24V8.648L27.49 6.634L28.49 8.366L25 10.381L29.026 12.706L28.026 14.438L23 11.535L17 14.999L23 18.464L28.026 15.562L29.026 17.294L25 19.618L28.49 21.634L27.49 23.366L24 21.351V26H22V20.196L16 16.731V23.66L21.026 26.562L20.026 28.294L16 25.97V30H14V25.969L9.974 28.294L8.974 26.562L14 23.66V16.731L8 20.195V26H6V21.35L2.51 23.366L1.51 21.634L4.999 19.618L0.973999 17.294L1.974 15.562L6.999 18.463L12.999 14.999L6.999 11.535L1.974 14.438L0.973999 12.706L5 10.38L1.51 8.366L2.51 6.634L6 8.648V4H8V9.803L14 13.267V6.339L8.974 3.438L9.974 1.706L14 4.03V0H16Z" fill="black"/>
</svg>
