<svg viewBox="0 0 30 27" fill="none" xmlns="http://www.w3.org/2000/svg">
<path d="M2 0V4H28V0H30V18C29.9999 19.1524 29.6019 20.2694 28.8732 21.1623C28.1446 22.0551 27.13 22.6689 26.001 22.9L26 27H24V23H6V27H4V22.9C2.90733 22.6765 1.92068 22.0943 1.19685 21.2458C0.473011 20.3973 0.0535087 19.3312 0.005 18.217L0 18V0H2ZM8 6H6V21H8V6ZM12 6H10V21H12V6ZM16 6H14V21H16V6ZM20 6H18V21H20V6ZM24 6H22V21H24V6ZM4 6H2V18C2 19.306 2.835 20.418 4 20.83V6ZM28 6H26V20.829C26.5566 20.632 27.0427 20.2752 27.3975 19.8033C27.7524 19.3314 27.9602 18.7654 27.995 18.176L28 18V6Z" fill="black"/>
</svg>
