<svg viewBox="0 0 30 28" fill="none" xmlns="http://www.w3.org/2000/svg">
<path d="M6.5 8.30407e-08C7.60705 -0.000212479 8.67533 0.407658 9.50054 1.14561C10.3258 1.88356 10.85 2.89981 10.973 4H13V6H7V4H8.95C8.82961 3.4061 8.49761 2.87614 8.01574 2.50869C7.53387 2.14125 6.93494 1.96134 6.33035 2.00242C5.72577 2.0435 5.15668 2.30277 4.72895 2.73202C4.30121 3.16127 4.04394 3.73127 4.005 4.336L4 4.5V14H30V16H28V21C28.0002 21.9731 27.7164 22.9251 27.1835 23.7393C26.6507 24.5536 25.8918 25.1946 25 25.584V28H23V26H7V28H5V25.584C4.14481 25.2106 3.41112 24.6055 2.88185 23.8369C2.35259 23.0684 2.04886 22.1671 2.005 21.235L2 21V16H0V14H2V4.5C2 3.30653 2.47411 2.16193 3.31802 1.31802C4.16193 0.474106 5.30653 8.30407e-08 6.5 8.30407e-08ZM25.999 16H3.999L4 21C3.99988 21.7351 4.26968 22.4447 4.75819 22.994C5.24669 23.5434 5.91989 23.8942 6.65 23.98L6.824 23.995L7 24H23C23.7652 24 24.5015 23.7077 25.0583 23.1827C25.615 22.6578 25.9501 21.9399 25.995 21.176L26 21L25.999 16Z" fill="black"/>
</svg>
