<svg viewBox="0 0 25 28" fill="none" xmlns="http://www.w3.org/2000/svg">
<path d="M7 4.66045e-09C7.76521 -4.26217e-05 8.50151 0.292325 9.05826 0.817284C9.61501 1.34224 9.95011 2.06011 9.995 2.824L10 3V14H24C24.2449 14 24.4813 14.09 24.6644 14.2527C24.8474 14.4155 24.9643 14.6397 24.993 14.883L25 15C25 17.0784 24.1911 19.0753 22.7445 20.5677C21.298 22.0602 19.3274 22.931 17.25 22.996L17 23H12.477L13.928 26.629C13.9816 26.7628 14.0057 26.9066 13.9986 27.0505C13.9915 27.1945 13.9533 27.3352 13.8868 27.4631C13.8202 27.5909 13.7267 27.7028 13.6129 27.7912C13.499 27.8796 13.3674 27.9423 13.227 27.975L13.116 27.994L13 28H1C0.755067 28 0.518663 27.91 0.335628 27.7473C0.152593 27.5845 0.0356572 27.3603 0.00699997 27.117L4.66045e-09 27V3C-4.26217e-05 2.23479 0.292325 1.49849 0.817284 0.941739C1.34224 0.384993 2.06011 0.0498925 2.824 0.00500012L3 4.66045e-09H7ZM22.915 16H2V26H11.523L10.072 22.371C10.0184 22.2372 9.99428 22.0934 10.0014 21.9495C10.0085 21.8055 10.0467 21.6648 10.1132 21.5369C10.1798 21.4091 10.2733 21.2972 10.3871 21.2088C10.501 21.1204 10.6326 21.0577 10.773 21.025L10.884 21.006L11 21H17C18.3597 20.9999 19.6791 20.538 20.742 19.6902C21.805 18.8423 22.5486 17.6586 22.851 16.333L22.899 16.103L22.915 16ZM7 2H3C2.75507 2.00003 2.51866 2.08996 2.33563 2.25272C2.15259 2.41547 2.03566 2.63975 2.007 2.883L2 3V14H8V3C8.00018 2.77464 7.92423 2.55582 7.78447 2.37902C7.64471 2.20223 7.44932 2.07783 7.23 2.026L7.117 2.006L7 2ZM18 11C18.2652 11 18.5196 11.1054 18.7071 11.2929C18.8946 11.4804 19 11.7348 19 12C19 12.2652 18.8946 12.5196 18.7071 12.7071C18.5196 12.8946 18.2652 13 18 13C17.7348 13 17.4804 12.8946 17.2929 12.7071C17.1054 12.5196 17 12.2652 17 12C17 11.7348 17.1054 11.4804 17.2929 11.2929C17.4804 11.1054 17.7348 11 18 11ZM18 8C18.2652 8 18.5196 8.10536 18.7071 8.29289C18.8946 8.48043 19 8.73478 19 9C19 9.26522 18.8946 9.51957 18.7071 9.70711C18.5196 9.89464 18.2652 10 18 10C17.7348 10 17.4804 9.89464 17.2929 9.70711C17.1054 9.51957 17 9.26522 17 9C17 8.73478 17.1054 8.48043 17.2929 8.29289C17.4804 8.10536 17.7348 8 18 8ZM22 8C22.2652 8 22.5196 8.10536 22.7071 8.29289C22.8946 8.48043 23 8.73478 23 9C23 9.26522 22.8946 9.51957 22.7071 9.70711C22.5196 9.89464 22.2652 10 22 10C21.7348 10 21.4804 9.89464 21.2929 9.70711C21.1054 9.51957 21 9.26522 21 9C21 8.73478 21.1054 8.48043 21.2929 8.29289C21.4804 8.10536 21.7348 8 22 8ZM14 8C14.2652 8 14.5196 8.10536 14.7071 8.29289C14.8946 8.48043 15 8.73478 15 9C15 9.26522 14.8946 9.51957 14.7071 9.70711C14.5196 9.89464 14.2652 10 14 10C13.7348 10 13.4804 9.89464 13.2929 9.70711C13.1054 9.51957 13 9.26522 13 9C13 8.73478 13.1054 8.48043 13.2929 8.29289C13.4804 8.10536 13.7348 8 14 8ZM20 6C20.2652 6 20.5196 6.10536 20.7071 6.29289C20.8946 6.48043 21 6.73478 21 7C21 7.26522 20.8946 7.51957 20.7071 7.70711C20.5196 7.89464 20.2652 8 20 8C19.7348 8 19.4804 7.89464 19.2929 7.70711C19.1054 7.51957 19 7.26522 19 7C19 6.73478 19.1054 6.48043 19.2929 6.29289C19.4804 6.10536 19.7348 6 20 6ZM16 6C16.2652 6 16.5196 6.10536 16.7071 6.29289C16.8946 6.48043 17 6.73478 17 7C17 7.26522 16.8946 7.51957 16.7071 7.70711C16.5196 7.89464 16.2652 8 16 8C15.7348 8 15.4804 7.89464 15.2929 7.70711C15.1054 7.51957 15 7.26522 15 7C15 6.73478 15.1054 6.48043 15.2929 6.29289C15.4804 6.10536 15.7348 6 16 6ZM5 4C5.26522 4 5.51957 4.10536 5.70711 4.29289C5.89464 4.48043 6 4.73478 6 5C6 5.26522 5.89464 5.51957 5.70711 5.70711C5.51957 5.89464 5.26522 6 5 6C4.73478 6 4.48043 5.89464 4.29289 5.70711C4.10536 5.51957 4 5.26522 4 5C4 4.73478 4.10536 4.48043 4.29289 4.29289C4.48043 4.10536 4.73478 4 5 4Z" fill="black"/>
</svg>
