<svg viewBox="0 0 31 30" fill="none" xmlns="http://www.w3.org/2000/svg">
<path d="M19.332 2.08199C20.827 4.32499 20.293 7.62799 17.945 11.989L17.833 12.177L18.005 12.359C18.117 12.487 18.221 12.622 18.316 12.763L18.543 13.143L18.683 13.16C19.383 13.217 20.458 13.045 21.551 12.68C22.435 12.386 23.331 11.903 24.231 11.232L24.891 10.707C25.2644 10.3925 25.709 10.1739 26.1861 10.0702C26.6631 9.96652 27.1583 9.98081 27.6286 10.1119C28.0989 10.2429 28.5301 10.4868 28.8848 10.8222C29.2395 11.1577 29.507 11.5747 29.664 12.037L29.779 12.479C30.37 15.825 29.801 18.209 27.922 19.461C25.679 20.957 22.376 20.423 18.015 18.074C17.9222 18.0241 17.8321 17.9694 17.745 17.91L17.675 17.975C17.553 18.083 17.426 18.185 17.293 18.278L17.011 18.465L17.001 19.007C16.985 19.703 17.157 20.687 17.49 21.685C17.784 22.569 18.268 23.465 18.938 24.365L19.198 24.702L19.463 25.025C19.717 25.3262 19.9092 25.6745 20.0286 26.0501C20.148 26.4256 20.1923 26.8209 20.1588 27.2136C20.1254 27.6062 20.0149 27.9884 19.8338 28.3383C19.6526 28.6882 19.4043 28.999 19.103 29.253C18 30 16.947 30 16 30L15.465 29.995L14.071 29.891C12.829 29.714 11.507 29.254 10.709 28.056C9.21399 25.813 9.74799 22.51 12.096 18.149C12.142 18.063 12.192 17.98 12.246 17.901C12.1138 17.7747 11.9902 17.6397 11.876 17.497C11.8326 17.4108 11.7744 17.3329 11.704 17.267C11.6417 17.2137 11.5671 17.1766 11.487 17.159C10.799 17.056 9.63699 17.224 8.45199 17.619C7.56799 17.914 6.67199 18.397 5.77199 19.068L5.11199 19.593C4.73854 19.9075 4.29399 20.126 3.81691 20.2297C3.33984 20.3335 2.84466 20.3192 2.37436 20.1881C1.90406 20.0571 1.47284 19.8132 1.11815 19.4777C0.763456 19.1423 0.495999 18.7253 0.338993 18.263L0.222993 17.82C-0.367007 14.475 0.202993 12.09 2.08099 10.838C4.32399 9.34299 7.62699 9.87799 11.988 12.225L12.072 12.275C12.385 11.978 12.628 11.772 12.802 11.657L13.005 11.532L13.03 11.321C13.087 10.621 12.916 9.54599 12.551 8.45299C12.257 7.56899 11.773 6.67299 11.103 5.77299L10.578 5.11199C10.2637 4.73854 10.0453 4.29406 9.94176 3.81711C9.83818 3.34015 9.85252 2.84513 9.98356 2.37497C10.1146 1.90482 10.3584 1.47373 10.6937 1.11912C11.0291 0.764497 11.4459 0.497055 11.908 0.339989L12.35 0.223988C15.696 -0.366012 18.08 0.202989 19.332 2.08199ZM14.017 18.878L13.857 19.097C11.824 22.873 11.359 25.549 12.373 26.947C13.5 28.5 17 28.5 17.813 27.723C18.19 27.363 18.279 26.831 18.002 26.406L17.643 25.958C16.688 24.759 16.002 23.545 15.593 22.316C15.239 21.256 15.031 20.196 15.003 19.293L15 19L14.863 18.998C14.6487 18.9907 14.4354 18.9663 14.225 18.925L14.017 18.878ZM3.08699 12.518C1.53399 13.645 1.53399 17.145 2.30999 17.958C2.66899 18.335 3.20099 18.424 3.62599 18.147L4.07399 17.788C5.27399 16.832 6.48699 16.147 7.71599 15.738C8.88199 15.348 10.048 15.136 11.004 15.146L11 15C11 14.859 11.007 14.72 11.022 14.582L11.097 14.12L10.937 14.002C7.16099 11.969 4.48499 11.504 3.08699 12.518ZM26.329 12.162L25.881 12.521C24.681 13.477 23.468 14.162 22.239 14.571C21.091 14.954 19.943 15.167 18.996 15.163C18.986 15.421 18.952 15.673 18.895 15.915L18.827 16.166L19.018 16.307C22.794 18.34 25.47 18.805 26.868 17.791C28.422 16.664 28.422 13.164 27.645 12.351C27.286 11.974 26.754 11.885 26.329 12.162ZM15 13C14.4696 13 13.9609 13.2107 13.5858 13.5858C13.2107 13.9608 13 14.4696 13 15C13 15.5304 13.2107 16.0391 13.5858 16.4142C13.9609 16.7893 14.4696 17 15 17C15.5304 17 16.0391 16.7893 16.4142 16.4142C16.7893 16.0391 17 15.5304 17 15C17 14.4696 16.7893 13.9608 16.4142 13.5858C16.0391 13.2107 15.5304 13 15 13ZM12.205 2.38799C11.829 2.74799 11.74 3.27999 12.017 3.70499L12.377 4.15199C13.332 5.35199 14.017 6.56599 14.427 7.79499C14.804 8.92699 15.016 10.06 15.018 10.999L15.56 11.039L15.855 11.092L16.067 11.144L16.162 11.015C18.195 7.23899 18.66 4.56299 17.646 3.16499C16.519 1.61199 13.019 1.61199 12.206 2.38799H12.205Z" fill="black"/>
</svg>
