<svg viewBox="0 0 26 28" fill="none" xmlns="http://www.w3.org/2000/svg">
<path d="M22 0C22.2035 7.64197e-05 22.4022 0.062251 22.5694 0.178219C22.7367 0.294187 22.8646 0.458426 22.936 0.649L22.97 0.757L23.97 4.757C24.0047 4.89521 24.0094 5.03924 23.9839 5.17943C23.9584 5.31963 23.9032 5.45275 23.8221 5.56988C23.7409 5.68702 23.6357 5.78545 23.5134 5.8586C23.3911 5.93174 23.2546 5.97791 23.113 5.994L23 6H14V8H12V5.999H1.999V25.999L4.999 26C4.50562 25.342 4.18216 24.5725 4.05726 23.7597C3.93237 22.9468 4.00991 22.1157 4.283 21.34L4.385 21.077L6.9 15.037L5.106 11.447C5.03426 11.3033 4.99818 11.1445 5.00081 10.9839C5.00345 10.8233 5.04472 10.6657 5.12113 10.5245C5.19754 10.3832 5.30686 10.2624 5.43982 10.1724C5.57278 10.0823 5.72548 10.0256 5.885 10.007L6 10H20C20.1607 10 20.319 10.0387 20.4615 10.1129C20.604 10.187 20.7266 10.2944 20.8188 10.426C20.911 10.5576 20.9702 10.7094 20.9913 10.8687C21.0124 11.028 20.9948 11.19 20.94 11.341L20.894 11.447L19.618 14H21C22.2885 14.0001 23.5272 14.4975 24.4578 15.3887C25.3884 16.2798 25.9391 17.4958 25.995 18.783L26 19V23H24V19C24 18.2348 23.7077 17.4985 23.1827 16.9417C22.6578 16.385 21.9399 16.0499 21.176 16.005L21 16H19.5L21.615 21.077C21.9499 21.8801 22.0693 22.7568 21.9615 23.6202C21.8536 24.4836 21.5222 25.304 21 26H24V28H1C0.755067 28 0.518663 27.91 0.335628 27.7473C0.152593 27.5845 0.0356572 27.3603 0.00699997 27.117L0 27V1C3.23106e-05 0.755067 0.0899562 0.518663 0.252715 0.335628C0.415475 0.152593 0.639749 0.0356572 0.883 0.00699997L1 0H22ZM9.647 20C8.64196 19.9863 7.64694 20.201 6.737 20.628L6.231 21.846C6.1396 22.0649 6.07448 22.2938 6.037 22.528L6.009 22.763L6 23C5.99996 23.7652 6.29233 24.5015 6.81728 25.0583C7.34224 25.615 8.06011 25.9501 8.824 25.995L8.98 25.999L17.007 26L17.237 25.99C17.821 25.9438 18.3787 25.7276 18.8413 25.3681C19.3038 25.0086 19.651 24.5215 19.84 23.967C18.148 23.846 16.91 23.297 15.004 22.078L14.629 21.835C12.493 20.44 11.452 20 9.647 20ZM17.333 16H8.666L7.753 18.188C8.37598 18.059 9.01082 17.996 9.647 18C11.835 18 13.162 18.52 15.397 19.95L15.777 20.196C17.517 21.332 18.518 21.823 19.811 21.956L19.769 21.846L17.333 16ZM18.381 12H7.618L8.618 14H17.381L18.381 12ZM21.218 1.999H1.999V3.999H21.718L21.218 1.999Z" fill="black"/>
</svg>
