<svg viewBox="0 0 30 23" fill="none" xmlns="http://www.w3.org/2000/svg">
<path d="M30 2V23H28V16H22V23H20V16C19.9998 15.4954 20.1904 15.0094 20.5335 14.6395C20.8766 14.2695 21.3468 14.0428 21.85 14.005L22 14H28V2H30ZM2 2V14H8C8.50458 13.9998 8.99057 14.1904 9.36055 14.5335C9.73053 14.8766 9.95716 15.3468 9.995 15.85L10 16V23H8V16H2V23H0V2H2ZM16 0V2.083C17.36 2.31322 18.5992 3.00485 19.5091 4.04152C20.419 5.07818 20.9441 6.39662 20.996 7.775L21 8H26V10H16V23H14V10H4V8H9C9.00018 6.58203 9.50239 5.20991 10.4176 4.12685C11.3328 3.04378 12.6019 2.31972 14 2.083V0H16ZM15 4C13.9738 4 12.9868 4.39443 12.2432 5.10172C11.4996 5.80901 11.0563 6.77504 11.005 7.8L11 8H19C19 6.93913 18.5786 5.92172 17.8284 5.17157C17.0783 4.42143 16.0609 4 15 4Z" fill="black"/>
</svg>
