<svg viewBox="0 0 32 32" fill="none" xmlns="http://www.w3.org/2000/svg">
<path d="M28 2C28.5046 1.99984 28.9906 2.19041 29.3605 2.5335C29.7305 2.87659 29.9572 3.34684 29.995 3.85L30 4V28C30.0002 28.5046 29.8096 28.9906 29.4665 29.3605C29.1234 29.7305 28.6532 29.9572 28.15 29.995L28 30H4C3.49542 30.0002 3.00943 29.8096 2.63945 29.4665C2.26947 29.1234 2.04284 28.6532 2.005 28.15L2 28V4C1.99984 3.49542 2.19041 3.00943 2.5335 2.63945C2.87659 2.26947 3.34684 2.04284 3.85 2.005L4 2H28ZM28 12H4V28H28V12ZM26 14V18C26 18.6204 25.8076 19.2256 25.4495 19.7323C25.0913 20.2389 24.5849 20.622 24 20.829V24H26V26H20V24L22 23.999V20.829C21.4434 20.632 20.9573 20.2752 20.6025 19.8033C20.2476 19.3314 20.0398 18.7654 20.005 18.176L20 18V14H26ZM12 14C13.5913 14 15.1174 14.6321 16.2426 15.7574C17.3679 16.8826 18 18.4087 18 20C18 21.5913 17.3679 23.1174 16.2426 24.2426C15.1174 25.3679 13.5913 26 12 26C10.4087 26 8.88258 25.3679 7.75736 24.2426C6.63214 23.1174 6 21.5913 6 20C6 18.4087 6.63214 16.8826 7.75736 15.7574C8.88258 14.6321 10.4087 14 12 14V14ZM12 16C10.9391 16 9.92172 16.4214 9.17157 17.1716C8.42143 17.9217 8 18.9391 8 20C8 21.0609 8.42143 22.0783 9.17157 22.8284C9.92172 23.5786 10.9391 24 12 24C13.0609 24 14.0783 23.5786 14.8284 22.8284C15.5786 22.0783 16 21.0609 16 20C16 18.9391 15.5786 17.9217 14.8284 17.1716C14.0783 16.4214 13.0609 16 12 16V16ZM24 16H22V18C21.9998 18.2254 22.0758 18.4442 22.2155 18.621C22.3553 18.7978 22.5507 18.9222 22.77 18.974L22.883 18.994L23 19C23.2449 19 23.4813 18.91 23.6644 18.7473C23.8474 18.5845 23.9643 18.3603 23.993 18.117L24 18V16ZM28 4H4V10H28V4ZM22 6V8H10V6H22ZM7 6C7.26522 6 7.51957 6.10536 7.70711 6.29289C7.89464 6.48043 8 6.73478 8 7C8 7.26522 7.89464 7.51957 7.70711 7.70711C7.51957 7.89464 7.26522 8 7 8C6.73478 8 6.48043 7.89464 6.29289 7.70711C6.10536 7.51957 6 7.26522 6 7C6 6.73478 6.10536 6.48043 6.29289 6.29289C6.48043 6.10536 6.73478 6 7 6V6Z" fill="black"/>
</svg>
