<svg viewBox="0 0 18 32" fill="none" xmlns="http://www.w3.org/2000/svg">
<path d="M2 28H0V15C0 10.003 3.356 5.69599 8.061 4.39699C8.16014 3.91273 8.37741 3.46047 8.69349 3.08042C9.00956 2.70037 9.41465 2.40431 9.87273 2.21857C10.3308 2.03282 10.8277 1.96314 11.3192 2.01573C11.8107 2.06832 12.2816 2.24154 12.69 2.51999L15.35 0.23999L16.652 1.75999L14.036 3.99999H18V5.99999H13.83C13.6804 6.42199 13.4385 6.80527 13.1219 7.12186C12.8053 7.43846 12.422 7.68038 12 7.82999L12.001 8.07199C13.5842 8.30212 15.0409 9.06708 16.1291 10.2397C17.2174 11.4124 17.8716 12.9221 17.983 14.518L17.996 14.758L18 15V30C18.0002 30.5046 17.8096 30.9906 17.4665 31.3605C17.1234 31.7305 16.6532 31.9571 16.15 31.995L16 32H6C5.49542 32.0002 5.00943 31.8096 4.63945 31.4665C4.26947 31.1234 4.04284 30.6531 4.005 30.15L4 30V24H2V28ZM11 9.99999C8.383 9.99999 6.225 12.014 6.017 14.573L6.004 14.793L6 15V30H16V15.018L15.997 14.812C15.9484 13.5193 15.4006 12.2957 14.4688 11.3984C13.537 10.5011 12.2936 9.99985 11 9.99999ZM8.346 6.39999C6.55279 6.95368 4.97747 8.05397 3.84036 9.547C2.70324 11.04 2.06119 12.8511 2.004 14.727L2 15V22H4V14.982L4.005 14.738C4.06632 13.1009 4.69983 11.5371 5.79523 10.3189C6.89064 9.10072 8.37857 8.30525 10 8.07099V7.82899C9.28891 7.5765 8.6986 7.06613 8.346 6.39899V6.39999ZM11 3.99999C10.7348 3.99999 10.4804 4.10535 10.2929 4.29288C10.1054 4.48042 10 4.73477 10 4.99999C10 5.26521 10.1054 5.51956 10.2929 5.7071C10.4804 5.89463 10.7348 5.99999 11 5.99999C11.2652 5.99999 11.5196 5.89463 11.7071 5.7071C11.8946 5.51956 12 5.26521 12 4.99999C12 4.73477 11.8946 4.48042 11.7071 4.29288C11.5196 4.10535 11.2652 3.99999 11 3.99999Z" fill="black"/>
</svg>
