<svg viewBox="0 0 30 26" fill="none" xmlns="http://www.w3.org/2000/svg">
<path d="M25 0C26.2885 7.44425e-05 27.5272 0.497542 28.4578 1.38866C29.3884 2.27978 29.9391 3.49575 29.995 4.783L30 5V21C29.9999 22.2885 29.5025 23.5272 28.6113 24.4578C27.7202 25.3884 26.5042 25.9391 25.217 25.995L25 26H5C3.71154 25.9999 2.47284 25.5025 1.54222 24.6113C0.611607 23.7202 0.0609193 22.5042 0.005 21.217L0 21V5C7.44425e-05 3.71154 0.497541 2.47284 1.38866 1.54222C2.27978 0.611607 3.49575 0.0609194 4.783 0.00500011L5 0H25ZM25 2H5C4.23479 1.99996 3.49849 2.29233 2.94174 2.81728C2.38499 3.34224 2.04989 4.06011 2.005 4.824L2 5V21C1.99996 21.7652 2.29233 22.5015 2.81728 23.0583C3.34224 23.615 4.06011 23.9501 4.824 23.995L5 24H25C25.7652 24 26.5015 23.7077 27.0583 23.1827C27.615 22.6578 27.9501 21.9399 27.995 21.176L28 21V5C28 4.23479 27.7077 3.49849 27.1827 2.94174C26.6578 2.38499 25.9399 2.04989 25.176 2.005L25 2ZM18 6V10H22V16H18V20H12V15.999L8 16V10L12 9.999V6H18ZM15.999 8H13.999L14 11.999H9.999V14L14 13.998L13.999 18H15.999L16 14H19.999V12H16L15.999 8Z" fill="black"/>
</svg>
