<svg viewBox="0 0 31 30" fill="none" xmlns="http://www.w3.org/2000/svg">
<path d="M14 26L13.995 26.2C13.9455 27.1895 13.5306 28.1254 12.8306 28.8265C12.1307 29.5276 11.1954 29.944 10.206 29.995L9.99999 30H3.99999V28H9.99999L10.15 27.995C10.6262 27.9592 11.0738 27.7542 11.412 27.4171C11.7502 27.08 11.9567 26.6331 11.994 26.157L12 26H14ZM9.99999 3.63408e-06C10.536 3.63408e-06 11.067 0.0470036 11.58 0.138004L11.96 0.215004L29.408 3.855C29.83 3.94297 30.2123 4.16496 30.498 4.48788C30.7836 4.81081 30.9572 5.21738 30.993 5.647L31 5.813V12.187C30.9999 12.6181 30.8606 13.0376 30.6027 13.383C30.3448 13.7285 29.9822 13.9814 29.569 14.104L29.409 14.144L15.855 16.97L17.622 23.476C17.6986 23.7581 17.7124 24.0536 17.6624 24.3417C17.6124 24.6297 17.4999 24.9033 17.3328 25.1432C17.1657 25.3831 16.948 25.5834 16.6951 25.73C16.4422 25.8767 16.1602 25.9661 15.869 25.992L15.692 26H11.76C11.3497 26 10.9494 25.8738 10.6133 25.6386C10.2772 25.4034 10.0215 25.0704 9.88099 24.685L9.83299 24.535L7.95299 17.766C5.80049 17.2653 3.90744 15.9902 2.63459 14.1836C1.36175 12.377 0.798098 10.1653 1.05106 7.96984C1.30401 5.7744 2.3559 3.74878 4.00624 2.279C5.65659 0.809213 7.79003 -0.00198129 9.99999 3.63408e-06ZM15.692 24L13.893 17.379L12.087 17.757C11.5411 17.8863 10.9844 17.9643 10.424 17.99L10.093 17.998L11.76 24H15.692ZM9.99999 2C9.02509 2.00043 8.06103 2.20449 7.16958 2.5991C6.27812 2.99372 5.47892 3.5702 4.82317 4.2916C4.16743 5.013 3.66961 5.86343 3.36159 6.78838C3.05358 7.71334 2.94217 8.69244 3.0345 9.66296C3.12683 10.6335 3.42086 11.574 3.89776 12.4243C4.37467 13.2746 5.02392 14.0159 5.80393 14.6007C6.58394 15.1855 7.47751 15.6009 8.42738 15.8204C9.37726 16.0398 10.3625 16.0584 11.32 15.875L11.651 15.805L29 12.187V5.813L11.538 2.169C11.0331 2.05623 10.5173 1.99955 9.99999 2ZM9.99999 4C11.3261 4 12.5978 4.52679 13.5355 5.46447C14.4732 6.40215 15 7.67392 15 9C15 10.3261 14.4732 11.5979 13.5355 12.5355C12.5978 13.4732 11.3261 14 9.99999 14C8.67391 14 7.40214 13.4732 6.46445 12.5355C5.52677 11.5979 4.99999 10.3261 4.99999 9C4.99999 7.67392 5.52677 6.40215 6.46445 5.46447C7.40214 4.52679 8.67391 4 9.99999 4ZM9.99999 6C9.20434 6 8.44128 6.31607 7.87867 6.87868C7.31606 7.44129 6.99999 8.20435 6.99999 9C6.99999 9.79565 7.31606 10.5587 7.87867 11.1213C8.44128 11.6839 9.20434 12 9.99999 12C10.7956 12 11.5587 11.6839 12.1213 11.1213C12.6839 10.5587 13 9.79565 13 9C13 8.20435 12.6839 7.44129 12.1213 6.87868C11.5587 6.31607 10.7956 6 9.99999 6Z" fill="black"/>
</svg>
