<svg viewBox="0 0 30 27" fill="none" xmlns="http://www.w3.org/2000/svg">
<path d="M12 25C12.2652 25 12.5196 25.1054 12.7071 25.2929C12.8947 25.4804 13 25.7348 13 26C13 26.2652 12.8947 26.5196 12.7071 26.7071C12.5196 26.8946 12.2652 27 12 27C11.7348 27 11.4804 26.8946 11.2929 26.7071C11.1054 26.5196 11 26.2652 11 26C11 25.7348 11.1054 25.4804 11.2929 25.2929C11.4804 25.1054 11.7348 25 12 25ZM16 25C16.2652 25 16.5196 25.1054 16.7071 25.2929C16.8947 25.4804 17 25.7348 17 26C17 26.2652 16.8947 26.5196 16.7071 26.7071C16.5196 26.8946 16.2652 27 16 27C15.7348 27 15.4804 26.8946 15.2929 26.7071C15.1054 26.5196 15 26.2652 15 26C15 25.7348 15.1054 25.4804 15.2929 25.2929C15.4804 25.1054 15.7348 25 16 25ZM20 25C20.2652 25 20.5196 25.1054 20.7071 25.2929C20.8947 25.4804 21 25.7348 21 26C21 26.2652 20.8947 26.5196 20.7071 26.7071C20.5196 26.8946 20.2652 27 20 27C19.7348 27 19.4804 26.8946 19.2929 26.7071C19.1054 26.5196 19 26.2652 19 26C19 25.7348 19.1054 25.4804 19.2929 25.2929C19.4804 25.1054 19.7348 25 20 25ZM14 22C14.2652 22 14.5196 22.1054 14.7071 22.2929C14.8947 22.4804 15 22.7348 15 23C15 23.2652 14.8947 23.5196 14.7071 23.7071C14.5196 23.8946 14.2652 24 14 24C13.7348 24 13.4804 23.8946 13.2929 23.7071C13.1054 23.5196 13 23.2652 13 23C13 22.7348 13.1054 22.4804 13.2929 22.2929C13.4804 22.1054 13.7348 22 14 22ZM18 22C18.2652 22 18.5196 22.1054 18.7071 22.2929C18.8947 22.4804 19 22.7348 19 23C19 23.2652 18.8947 23.5196 18.7071 23.7071C18.5196 23.8946 18.2652 24 18 24C17.7348 24 17.4804 23.8946 17.2929 23.7071C17.1054 23.5196 17 23.2652 17 23C17 22.7348 17.1054 22.4804 17.2929 22.2929C17.4804 22.1054 17.7348 22 18 22ZM16.027 0L16.335 0.00399995C19.0712 0.0715154 21.7095 1.03572 23.8444 2.74843C25.9793 4.46114 27.4927 6.82757 28.152 9.484L28.222 9.784L29.952 17.566L29.979 17.71C30.0189 17.9817 30.0024 18.2588 29.9305 18.5239C29.8587 18.7889 29.733 19.0364 29.5613 19.2508C29.3896 19.4651 29.1756 19.6419 28.9326 19.7699C28.6896 19.8979 28.4229 19.9746 28.149 19.995L28 20H2.24701L2.09701 19.995C1.62084 19.9592 1.17318 19.7542 0.834979 19.4171C0.496776 19.08 0.290345 18.6331 0.253009 18.157L0.247009 18V11L0.251009 10.783C0.305278 9.53408 0.82542 8.35079 1.70891 7.46637C2.5924 6.58196 3.77515 6.06058 5.02401 6.005L5.24701 6H14.247V2H0.247009V0H16.027ZM27.555 16H2.24501L2.24701 18H28L27.555 16ZM16.247 2.002V8H5.24701L5.07001 8.005C4.3366 8.04831 3.64457 8.35924 3.12516 8.87884C2.60575 9.39844 2.29506 10.0906 2.25201 10.824L2.24701 11L2.24601 14H27.11L26.27 10.217L26.203 9.937C25.6576 7.76581 24.4321 5.82595 22.7056 4.40085C20.9792 2.97575 18.8422 2.1401 16.607 2.016L16.315 2.004L16.247 2.002Z" fill="black"/>
</svg>
