<svg viewBox="0 0 27 29" fill="none" xmlns="http://www.w3.org/2000/svg">
<path d="M24 27V29H4V27H24ZM14 1.23107e-08C15.6466 0.00010274 17.2588 0.470807 18.6467 1.35666C20.0347 2.24251 21.1405 3.5066 21.834 5H26C26.1377 5.00001 26.2739 5.02848 26.4002 5.0836C26.5264 5.13872 26.6398 5.21932 26.7334 5.32033C26.827 5.42135 26.8987 5.54062 26.9441 5.67065C26.9895 5.80068 27.0075 5.93868 26.997 6.076C26.702 9.949 25.421 12.526 23.103 13.64L23.996 23.913C24.0186 24.1721 23.9393 24.4298 23.775 24.6315C23.6107 24.8331 23.3743 24.9628 23.116 24.993L23 25H5C4.73973 25.0001 4.48968 24.8987 4.30295 24.7174C4.11623 24.5361 4.00755 24.2892 4 24.029L4.004 23.913L5.397 7.887C5.423 7.587 5.465 7.29 5.521 7H3C2.75507 7.00003 2.51866 7.08996 2.33563 7.25272C2.15259 7.41547 2.03566 7.63975 2.007 7.883L2 8V18H4.66045e-09V8C-4.26217e-05 7.23479 0.292325 6.49849 0.817284 5.94174C1.34224 5.38499 2.06011 5.04989 2.824 5.005L3 5H6.165C6.85854 3.50645 7.96455 2.24225 9.35269 1.35639C10.7408 0.470527 12.3533 -8.78867e-05 14 1.23107e-08ZM20.431 7H7.57C7.5115 7.23069 7.46544 7.46436 7.432 7.7L7.391 8.06L6.09 23H21.909L20.61 8.06C20.579 7.70243 20.5191 7.34794 20.431 7ZM14.981 10C14.834 12.02 13.818 14.144 12.281 15.783L12.05 16.021C10.9712 17.095 10.2743 18.4931 10.066 20.001H8.051C8.25693 18.0719 9.08372 16.2618 10.407 14.843L10.635 14.607C11.939 13.303 12.815 11.573 12.974 10H14.981ZM18.981 10C18.994 10.166 19 10.333 19 10.5C18.999 12.664 17.946 15.008 16.28 16.783L16.05 17.021C15.2185 17.8491 14.6097 18.8738 14.28 20H12.216C12.5633 18.444 13.3196 17.0089 14.407 15.843L14.635 15.607C16.08 14.163 17 12.196 17 10.499C16.9998 10.332 16.9911 10.1651 16.974 9.999H18.982L18.981 10ZM24.888 7H22.479C22.519 7.207 22.552 7.418 22.577 7.63L22.603 7.887L22.909 11.405C23.889 10.613 24.543 9.24 24.855 7.225L24.888 7ZM14 2C12.8982 1.9996 11.8137 2.27366 10.8444 2.79743C9.87505 3.3212 9.05146 4.07818 8.448 5H19.552C18.9955 4.15046 18.2515 3.44 17.3772 2.92335C16.5028 2.4067 15.5216 2.09765 14.509 2.02L14.234 2.004L14 2Z" fill="black"/>
</svg>
