<svg viewBox="0 0 30 26" fill="none" xmlns="http://www.w3.org/2000/svg">
<path d="M28 1.00268e-07C28.5046 -0.000159579 28.9906 0.190406 29.3605 0.533497C29.7305 0.876587 29.9572 1.34684 29.995 1.85L30 2V24C30.0002 24.5046 29.8096 24.9906 29.4665 25.3605C29.1234 25.7305 28.6532 25.9572 28.15 25.995L28 26H2C1.49542 26.0002 1.00943 25.8096 0.639452 25.4665C0.269471 25.1234 0.0428433 24.6532 0.0050001 24.15L1.00268e-07 24V2C-0.000159579 1.49542 0.190406 1.00943 0.533497 0.639452C0.876587 0.269471 1.34684 0.0428434 1.85 0.00500021L2 1.00268e-07H28ZM28 2H2V24H28V2ZM22 4V22H4V4H22ZM20 6H6V20L9 20.001C8.4068 19.2124 8.0615 18.2653 8.008 17.28L8 17V14H18V17C18.0018 18.0825 17.6507 19.136 17 20.001L20 20V6ZM16 16H10V17C9.99988 17.7351 10.2697 18.4447 10.7582 18.994C11.2467 19.5434 11.9199 19.8942 12.65 19.98L12.824 19.995L13 20C13.7652 20 14.5015 19.7077 15.0583 19.1827C15.615 18.6578 15.9501 17.9399 15.995 17.176L16 17V16ZM25 8C25.2652 8 25.5196 8.10536 25.7071 8.29289C25.8946 8.48043 26 8.73478 26 9C26 9.26522 25.8946 9.51957 25.7071 9.70711C25.5196 9.89464 25.2652 10 25 10C24.7348 10 24.4804 9.89464 24.2929 9.70711C24.1054 9.51957 24 9.26522 24 9C24 8.73478 24.1054 8.48043 24.2929 8.29289C24.4804 8.10536 24.7348 8 25 8ZM25 4C25.2652 4 25.5196 4.10536 25.7071 4.29289C25.8946 4.48043 26 4.73478 26 5C26 5.26522 25.8946 5.51957 25.7071 5.70711C25.5196 5.89464 25.2652 6 25 6C24.7348 6 24.4804 5.89464 24.2929 5.70711C24.1054 5.51957 24 5.26522 24 5C24 4.73478 24.1054 4.48043 24.2929 4.29289C24.4804 4.10536 24.7348 4 25 4V4Z" fill="black"/>
</svg>
