<svg viewBox="0 0 28 28" fill="none" xmlns="http://www.w3.org/2000/svg">
<path d="M26 1.00268e-07C26.5046 -0.000159579 26.9906 0.190406 27.3605 0.533497C27.7305 0.876587 27.9572 1.34684 27.995 1.85L28 2V26C28.0002 26.5046 27.8096 26.9906 27.4665 27.3605C27.1234 27.7305 26.6532 27.9572 26.15 27.995L26 28H2C1.49542 28.0002 1.00943 27.8096 0.639452 27.4665C0.269471 27.1234 0.0428434 26.6532 0.00500021 26.15L1.00268e-07 26V2C-0.000159579 1.49542 0.190406 1.00943 0.533497 0.639452C0.876587 0.269471 1.34684 0.0428434 1.85 0.00500021L2 1.00268e-07H26ZM26 10H2V26H26V10ZM24 12V24H4V12H24ZM22 14H6V22H22V14ZM26 2H2V8H26V2ZM23 4C23.2652 4 23.5196 4.10536 23.7071 4.29289C23.8946 4.48043 24 4.73478 24 5C24 5.26522 23.8946 5.51957 23.7071 5.70711C23.5196 5.89464 23.2652 6 23 6C22.7348 6 22.4804 5.89464 22.2929 5.70711C22.1054 5.51957 22 5.26522 22 5C22 4.73478 22.1054 4.48043 22.2929 4.29289C22.4804 4.10536 22.7348 4 23 4V4ZM17 4C17.2652 4 17.5196 4.10536 17.7071 4.29289C17.8946 4.48043 18 4.73478 18 5C18 5.26522 17.8946 5.51957 17.7071 5.70711C17.5196 5.89464 17.2652 6 17 6C16.7348 6 16.4804 5.89464 16.2929 5.70711C16.1054 5.51957 16 5.26522 16 5C16 4.73478 16.1054 4.48043 16.2929 4.29289C16.4804 4.10536 16.7348 4 17 4V4ZM11 4C11.2652 4 11.5196 4.10536 11.7071 4.29289C11.8946 4.48043 12 4.73478 12 5C12 5.26522 11.8946 5.51957 11.7071 5.70711C11.5196 5.89464 11.2652 6 11 6C10.7348 6 10.4804 5.89464 10.2929 5.70711C10.1054 5.51957 10 5.26522 10 5C10 4.73478 10.1054 4.48043 10.2929 4.29289C10.4804 4.10536 10.7348 4 11 4V4ZM5 4C5.26522 4 5.51957 4.10536 5.70711 4.29289C5.89464 4.48043 6 4.73478 6 5C6 5.26522 5.89464 5.51957 5.70711 5.70711C5.51957 5.89464 5.26522 6 5 6C4.73478 6 4.48043 5.89464 4.29289 5.70711C4.10536 5.51957 4 5.26522 4 5C4 4.73478 4.10536 4.48043 4.29289 4.29289C4.48043 4.10536 4.73478 4 5 4V4Z" fill="black"/>
</svg>
