<svg viewBox="0 0 22 30" fill="none" xmlns="http://www.w3.org/2000/svg">
<path d="M20 1.00268e-07C20.5046 -0.000159579 20.9906 0.190406 21.3605 0.533497C21.7305 0.876587 21.9572 1.34684 21.995 1.85L22 2V28C22.0002 28.5046 21.8096 28.9906 21.4665 29.3605C21.1234 29.7305 20.6532 29.9572 20.15 29.995L20 30H2C1.49542 30.0002 1.00943 29.8096 0.639452 29.4665C0.269471 29.1234 0.0428434 28.6532 0.00500021 28.15L1.00268e-07 28V2C-0.000159579 1.49542 0.190406 1.00943 0.533497 0.639452C0.876587 0.269471 1.34684 0.0428433 1.85 0.0050001L2 1.00268e-07H20ZM20 10H2V28H20V10ZM5 12C5.26522 12 5.51957 12.1054 5.70711 12.2929C5.89464 12.4804 6 12.7348 6 13C6 13.2652 5.89464 13.5196 5.70711 13.7071C5.51957 13.8946 5.26522 14 5 14C4.73478 14 4.48043 13.8946 4.29289 13.7071C4.10536 13.5196 4 13.2652 4 13C4 12.7348 4.10536 12.4804 4.29289 12.2929C4.48043 12.1054 4.73478 12 5 12V12ZM20 2H2V8H20V2ZM5 4C5.26522 4 5.51957 4.10536 5.70711 4.29289C5.89464 4.48043 6 4.73478 6 5C6 5.26522 5.89464 5.51957 5.70711 5.70711C5.51957 5.89464 5.26522 6 5 6C4.73478 6 4.48043 5.89464 4.29289 5.70711C4.10536 5.51957 4 5.26522 4 5C4 4.73478 4.10536 4.48043 4.29289 4.29289C4.48043 4.10536 4.73478 4 5 4V4Z" fill="black"/>
</svg>
