<svg viewBox="0 0 28 28" fill="none" xmlns="http://www.w3.org/2000/svg">
<path d="M23 0C24.2885 7.44425e-05 25.5272 0.497541 26.4578 1.38866C27.3884 2.27978 27.9391 3.49575 27.995 4.783L28 5V23C27.9999 24.2885 27.5025 25.5272 26.6113 26.4578C25.7202 27.3884 24.5042 27.9391 23.217 27.995L23 28H5C3.71154 27.9999 2.47284 27.5025 1.54222 26.6113C0.611607 25.7202 0.0609194 24.5042 0.00500011 23.217L0 23V5C7.44425e-05 3.71154 0.497541 2.47284 1.38866 1.54222C2.27978 0.611607 3.49575 0.0609194 4.783 0.00500011L5 0H23ZM23 2H5C4.23479 1.99996 3.49849 2.29233 2.94174 2.81728C2.38499 3.34224 2.04989 4.06011 2.005 4.824L2 5V9L4 8.999V4H24V24H4V18.999L2 19V23C1.99996 23.7652 2.29233 24.5015 2.81728 25.0583C3.34224 25.615 4.06011 25.9501 4.824 25.995L5 26H23C23.7652 26 24.5015 25.7077 25.0583 25.1827C25.615 24.6578 25.9501 23.9399 25.995 23.176L26 23V5C26 4.23479 25.7077 3.49849 25.1827 2.94174C24.6578 2.38499 23.9399 2.04989 23.176 2.005L23 2ZM22 6H6V22H22V6ZM14 9C15.3261 9 16.5979 9.52678 17.5355 10.4645C18.4732 11.4021 19 12.6739 19 14C19 15.3261 18.4732 16.5979 17.5355 17.5355C16.5979 18.4732 15.3261 19 14 19C12.6739 19 11.4021 18.4732 10.4645 17.5355C9.52678 16.5979 9 15.3261 9 14C9 12.6739 9.52678 11.4021 10.4645 10.4645C11.4021 9.52678 12.6739 9 14 9V9ZM14 11C13.2044 11 12.4413 11.3161 11.8787 11.8787C11.3161 12.4413 11 13.2044 11 14C11 14.7956 11.3161 15.5587 11.8787 16.1213C12.4413 16.6839 13.2044 17 14 17C14.7956 17 15.5587 16.6839 16.1213 16.1213C16.6839 15.5587 17 14.7956 17 14C17 13.2044 16.6839 12.4413 16.1213 11.8787C15.5587 11.3161 14.7956 11 14 11ZM4 10.999L2 11V17L4 16.999V10.999Z" fill="black"/>
</svg>
