<svg viewBox="0 0 30 30" fill="none" xmlns="http://www.w3.org/2000/svg">
<path d="M15 0C23.284 0 30 6.716 30 15C30 23.284 23.284 30 15 30C6.716 30 0 23.284 0 15C0 6.716 6.716 0 15 0ZM15 2C7.82 2 2 7.82 2 15C2 22.18 7.82 28 15 28C22.18 28 28 22.18 28 15C28 7.82 22.18 2 15 2ZM10.1 16C10.2967 16.9606 10.7711 17.8422 11.4645 18.5355C12.1578 19.2289 13.0394 19.7033 14 19.9V21.93C12.5043 21.7134 11.1187 21.0189 10.0502 19.9502C8.9816 18.8814 8.28733 17.4957 8.071 16H10.1ZM19.9 16L21.929 16.001C21.7123 17.4962 21.018 18.8814 19.9497 19.9497C18.8814 21.018 17.4962 21.7123 16.001 21.929V19.899C16.9613 19.7022 17.8426 19.2278 18.5357 18.5347C19.2288 17.8416 19.7032 16.9603 19.9 16ZM15 12C15.7956 12 16.5587 12.3161 17.1213 12.8787C17.6839 13.4413 18 14.2044 18 15C18 15.7956 17.6839 16.5587 17.1213 17.1213C16.5587 17.6839 15.7956 18 15 18C14.2044 18 13.4413 17.6839 12.8787 17.1213C12.3161 16.5587 12 15.7956 12 15C12 14.2044 12.3161 13.4413 12.8787 12.8787C13.4413 12.3161 14.2044 12 15 12ZM15 14C14.7348 14 14.4804 14.1054 14.2929 14.2929C14.1054 14.4804 14 14.7348 14 15C14 15.2652 14.1054 15.5196 14.2929 15.7071C14.4804 15.8946 14.7348 16 15 16C15.2652 16 15.5196 15.8946 15.7071 15.7071C15.8946 15.5196 16 15.2652 16 15C16 14.7348 15.8946 14.4804 15.7071 14.2929C15.5196 14.1054 15.2652 14 15 14ZM16.001 8.071C17.4964 8.28773 18.8816 8.98217 19.95 10.0507C21.0183 11.1192 21.7125 12.5046 21.929 14H19.9C19.7033 13.0394 19.2289 12.1578 18.5355 11.4645C17.8422 10.7711 16.9606 10.2967 16 10.1L16.001 8.071ZM14 8.071V10.101C13.0396 10.2976 12.158 10.7719 11.4647 11.4651C10.7714 12.1582 10.2969 13.0396 10.1 14H8.07C8.28638 12.5041 8.9808 11.1183 10.0496 10.0496C11.1183 8.9808 12.5041 8.28638 14 8.07V8.071ZM22 7C22.2652 7 22.5196 7.10536 22.7071 7.29289C22.8946 7.48043 23 7.73478 23 8C23 8.26522 22.8946 8.51957 22.7071 8.70711C22.5196 8.89464 22.2652 9 22 9C21.7348 9 21.4804 8.89464 21.2929 8.70711C21.1054 8.51957 21 8.26522 21 8C21 7.73478 21.1054 7.48043 21.2929 7.29289C21.4804 7.10536 21.7348 7 22 7Z" fill="black"/>
</svg>
