<svg viewBox="0 0 28 28" fill="none" xmlns="http://www.w3.org/2000/svg">
<path d="M19.929 0C20.445 0 20.9559 0.101627 21.4326 0.299077C21.9093 0.496528 22.3424 0.785936 22.7072 1.15078C23.0721 1.51562 23.3615 1.94875 23.5589 2.42544C23.7564 2.90213 23.858 3.41304 23.858 3.929C23.858 4.795 23.572 5.634 23.03 6.339L23 6.373V8C24.2885 8.00007 25.5272 8.49754 26.4578 9.38866C27.3884 10.2798 27.9391 11.4958 27.995 12.783L28 13V25C28.0002 25.5046 27.8096 25.9906 27.4665 26.3605C27.1234 26.7305 26.6532 26.9572 26.15 26.995L26 27H25V28H23V27H7V28H5V27H4C3.49542 27.0002 3.00943 26.8096 2.63945 26.4665C2.26947 26.1234 2.04284 25.6532 2.005 25.15L2 25V15H0V13H2C2.00007 11.7115 2.49754 10.4728 3.38866 9.54222C4.27978 8.61161 5.49575 8.06092 6.783 8.005L7 8V6.38C6.44522 5.68425 6.14285 4.82088 6.1423 3.93102C6.14176 3.04116 6.44307 2.17743 6.997 1.481L7.14 1.313L7.293 1.151C7.97542 0.468312 8.88527 0.0607291 9.849 0.00600004L10.07 0H19.928H19.929ZM23 10H7C6.23479 9.99996 5.49849 10.2923 4.94174 10.8173C4.38499 11.3422 4.04989 12.0601 4.005 12.824L4 13V25H26V13C26 12.2348 25.7077 11.4985 25.1827 10.9417C24.6578 10.385 23.9399 10.0499 23.176 10.005L23 10ZM7 21C7.26522 21 7.51957 21.1054 7.70711 21.2929C7.89464 21.4804 8 21.7348 8 22C8 22.2652 7.89464 22.5196 7.70711 22.7071C7.51957 22.8946 7.26522 23 7 23C6.73478 23 6.48043 22.8946 6.29289 22.7071C6.10536 22.5196 6 22.2652 6 22C6 21.7348 6.10536 21.4804 6.29289 21.2929C6.48043 21.1054 6.73478 21 7 21ZM19.929 2H10.07C9.68848 2 9.31553 2.11314 8.99831 2.3251C8.6811 2.53706 8.43385 2.83833 8.28785 3.19081C8.14185 3.54328 8.10365 3.93114 8.17808 4.30532C8.25251 4.67951 8.43623 5.02322 8.706 5.293C8.86142 5.44855 8.96124 5.651 8.99 5.869L9 6V7.999H21V6C20.9999 5.83264 21.0419 5.66794 21.122 5.521L21.188 5.416L21.268 5.319L21.388 5.191C21.6214 4.92113 21.7754 4.59182 21.8329 4.23967C21.8903 3.88752 21.849 3.52634 21.7134 3.19628C21.5779 2.86622 21.3534 2.58023 21.0651 2.3701C20.7767 2.15996 20.4357 2.03393 20.08 2.006L19.929 2Z" fill="black"/>
</svg>
