<svg viewBox="0 0 30 26" fill="none" xmlns="http://www.w3.org/2000/svg">
<path d="M8 26V24H10V22H5C3.71154 21.9999 2.47284 21.5025 1.54222 20.6113C0.611607 19.7202 0.0609193 18.5042 0.005 17.217L0 17V5C7.44425e-05 3.71154 0.497541 2.47284 1.38866 1.54222C2.27978 0.611607 3.49575 0.0609194 4.783 0.00500011L5 0H25C26.2885 7.44425e-05 27.5272 0.497542 28.4578 1.38866C29.3884 2.27978 29.9391 3.49575 29.995 4.783L30 5V17C29.9999 18.2885 29.5025 19.5272 28.6113 20.4578C27.7202 21.3884 26.5042 21.9391 25.217 21.995L25 22H20V24H22V26H8ZM18 22H12V24H18V22ZM25 2H5C4.23479 1.99996 3.49849 2.29233 2.94174 2.81728C2.38499 3.34224 2.04989 4.06011 2.005 4.824L2 5V17C1.99996 17.7652 2.29233 18.5015 2.81728 19.0583C3.34224 19.615 4.06011 19.9501 4.824 19.995L5 20H25C25.7652 20 26.5015 19.7077 27.0583 19.1827C27.615 18.6578 27.9501 17.9399 27.995 17.176L28 17V5C28 4.23479 27.7077 3.49849 27.1827 2.94174C26.6578 2.38499 25.9399 2.04989 25.176 2.005L25 2Z" fill="black"/>
</svg>
