<svg viewBox="0 0 24 30" fill="none" xmlns="http://www.w3.org/2000/svg">
<path d="M21 4.66044e-09C21.7652 -4.26217e-05 22.5015 0.292325 23.0583 0.817284C23.615 1.34224 23.9501 2.06011 23.995 2.824L24 3V25C24 25.7652 23.7077 26.5015 23.1827 27.0583C22.6578 27.615 21.9399 27.9501 21.176 27.995L21 28V30H19V28H5V30H3V28C2.23479 28 1.49849 27.7077 0.941739 27.1827C0.384993 26.6578 0.0498925 25.9399 0.00500012 25.176L4.66045e-09 25V3C-4.26217e-05 2.23479 0.292325 1.49849 0.817284 0.941739C1.34224 0.384993 2.06011 0.0498924 2.824 0.005L3 4.66044e-09H21ZM22 20H2V25C2.00003 25.2449 2.08996 25.4813 2.25272 25.6644C2.41547 25.8474 2.63975 25.9643 2.883 25.993L3 26H21C21.2449 26 21.4813 25.91 21.6644 25.7473C21.8474 25.5845 21.9643 25.3603 21.993 25.117L22 25V20ZM12 22C12.2652 22 12.5196 22.1054 12.7071 22.2929C12.8946 22.4804 13 22.7348 13 23C13 23.2652 12.8946 23.5196 12.7071 23.7071C12.5196 23.8946 12.2652 24 12 24C11.7348 24 11.4804 23.8946 11.2929 23.7071C11.1054 23.5196 11 23.2652 11 23C11 22.7348 11.1054 22.4804 11.2929 22.2929C11.4804 22.1054 11.7348 22 12 22ZM21 2H13V18H22V3C22 2.75507 21.91 2.51866 21.7473 2.33563C21.5845 2.15259 21.3603 2.03566 21.117 2.007L21 2ZM11 2H3C2.75507 2.00003 2.51866 2.08996 2.33563 2.25272C2.15259 2.41547 2.03566 2.63975 2.007 2.883L2 3V18H11V2ZM8 10C8.26522 10 8.51957 10.1054 8.70711 10.2929C8.89464 10.4804 9 10.7348 9 11C9 11.2652 8.89464 11.5196 8.70711 11.7071C8.51957 11.8946 8.26522 12 8 12C7.73478 12 7.48043 11.8946 7.29289 11.7071C7.10536 11.5196 7 11.2652 7 11C7 10.7348 7.10536 10.4804 7.29289 10.2929C7.48043 10.1054 7.73478 10 8 10ZM16 10C16.2652 10 16.5196 10.1054 16.7071 10.2929C16.8946 10.4804 17 10.7348 17 11C17 11.2652 16.8946 11.5196 16.7071 11.7071C16.5196 11.8946 16.2652 12 16 12C15.7348 12 15.4804 11.8946 15.2929 11.7071C15.1054 11.5196 15 11.2652 15 11C15 10.7348 15.1054 10.4804 15.2929 10.2929C15.4804 10.1054 15.7348 10 16 10Z" fill="black"/>
</svg>
