<svg viewBox="0 0 28 28" fill="none" xmlns="http://www.w3.org/2000/svg">
<path d="M24.2876 0C25.7819 0.00218728 27.0468 1.10378 27.254 2.58389C27.7515 6.14498 28 9.9503 28 14C28 18.0497 27.7515 21.855 27.2539 25.4164C27.0551 26.837 25.8814 27.9091 24.4645 27.9945L24.2861 28H3.7124C2.21809 27.9978 0.953231 26.8962 0.746049 25.4161C0.248485 21.855 0 18.0497 0 14C0 9.9503 0.248485 6.14498 0.746084 2.58364C0.944945 1.16297 2.11859 0.0909197 3.53554 0.0054934L3.71387 0H24.2876ZM24.2861 2H3.71533C3.21728 2.00073 2.79579 2.36781 2.72681 2.86065C2.24247 6.3271 2 10.0403 2 14C2 17.9597 2.24247 21.6729 2.72677 25.1391C2.79048 25.5943 3.15452 25.9421 3.60073 25.9934L3.71387 26H24.2847C24.7827 25.9993 25.2042 25.6322 25.2732 25.1394C25.7575 21.6729 26 17.9597 26 14C26 10.0403 25.7575 6.3271 25.2732 2.86089C25.2042 2.36781 24.7827 2.00073 24.2861 2ZM14 5C18.9706 5 23 9.02944 23 14C23 18.9706 18.9706 23 14 23C9.02944 23 5 18.9706 5 14C5 9.02944 9.02944 5 14 5ZM8.15851 12.5C7.81742 12.4998 7.47879 12.5242 7.14495 12.5726C7.05013 13.0339 7 13.5111 7 14C7 17.866 10.134 21 14 21C16.732 21 19.0984 19.4349 20.2516 17.1525C19.9917 17.1749 19.7301 17.1861 19.4675 17.186C17.2055 17.1849 15.0238 16.3415 13.3424 14.7781L13.1057 14.5499C11.7754 13.2188 10.0038 12.5 8.15851 12.5ZM14 7C11.4075 7 9.14425 8.40929 7.93442 10.5036L8.159 10.5C10.4215 10.5 12.6035 11.3436 14.2834 12.9074L14.5199 13.1357C15.8513 14.4662 17.6234 15.1851 19.4685 15.186C19.961 15.1862 20.4485 15.1352 20.9238 15.0348C20.9742 14.6959 21 14.351 21 14C21 10.134 17.866 7 14 7ZM5 4C5.55228 4 6 4.44772 6 5C6 5.55228 5.55228 6 5 6C4.44772 6 4 5.55228 4 5C4 4.44772 4.44772 4 5 4Z" fill="black"/>
</svg>
