<svg viewBox="0 0 32 24" fill="none" xmlns="http://www.w3.org/2000/svg">
<path d="M15.9999 16.3332C18.0249 16.3332 19.6666 17.9748 19.6666 19.9999C19.6666 22.0249 18.0249 23.6666 15.9999 23.6666C13.9749 23.6666 12.3332 22.0249 12.3332 19.9999C12.3332 17.9748 13.9749 16.3332 15.9999 16.3332ZM15.9999 18.3332C15.0794 18.3332 14.3332 19.0794 14.3332 19.9999C14.3332 20.9204 15.0794 21.6666 15.9999 21.6666C16.9204 21.6666 17.6666 20.9204 17.6666 19.9999C17.6666 19.0794 16.9204 18.3332 15.9999 18.3332ZM16 11C19.5168 11 22.5625 13.0171 24.0432 15.9575L22.5289 17.4702C21.5147 14.8545 18.9739 13 16 13C13.0261 13 10.4853 14.8545 9.47109 17.4702L7.95727 15.9565C9.43819 13.0167 12.4836 11 16 11ZM16.0001 5.66679C20.9806 5.66679 25.3677 8.207 27.9367 12.0625L26.4896 13.5099C24.3149 10.0026 20.4303 7.66679 16.0001 7.66679C11.5699 7.66679 7.68528 10.0026 5.51061 13.5099L4.06351 12.0625C6.63246 8.207 11.0196 5.66679 16.0001 5.66679ZM15.9999 0.333191C22.451 0.333191 28.1766 3.43923 31.7628 8.2374L30.3323 9.66839C27.1237 5.22496 21.8995 2.33319 15.9999 2.33319C10.1008 2.33319 4.87692 5.22453 1.66821 9.66738L0.237732 8.2364C3.82403 3.4388 9.54929 0.333191 15.9999 0.333191Z" fill="black"/>
</svg>
