<svg viewBox="0 0 30 29" fill="none" xmlns="http://www.w3.org/2000/svg">
<path d="M25 5.80314e-08C25.1969 -6.69923e-05 25.3894 0.0579706 25.5534 0.166839C25.7174 0.275708 25.8456 0.430564 25.922 0.612L25.962 0.725L27.962 7.725C28.002 7.86457 28.0111 8.01117 27.9888 8.15463C27.9664 8.29808 27.9131 8.43495 27.8325 8.55571C27.7519 8.67647 27.6459 8.77823 27.522 8.85392C27.3981 8.92961 27.2592 8.97741 27.115 8.994L27 9H24V14H30V16H28V29H26L26.001 26.464C25.4725 26.7702 24.8805 26.9506 24.271 26.991L24 27H6C5.29782 27.0011 4.60784 26.8166 4 26.465V29H2V16H0V14H5V10C5.00003 9.75507 5.08996 9.51866 5.25272 9.33563C5.41547 9.15259 5.63975 9.03566 5.883 9.007L6 9H6.238L5.086 6.406L6.914 5.594L8.427 9H11C11.2449 9.00003 11.4813 9.08996 11.6644 9.25272C11.8474 9.41547 11.9643 9.63975 11.993 9.883L12 10V14H22V9H19C18.855 9.00003 18.7116 8.96851 18.58 8.90762C18.4483 8.84673 18.3315 8.75793 18.2376 8.64738C18.1437 8.53683 18.075 8.40718 18.0362 8.26742C17.9974 8.12766 17.9895 7.98113 18.013 7.838L18.038 7.725L20.038 0.725C20.0921 0.535735 20.2009 0.366646 20.3506 0.238923C20.5004 0.111199 20.6846 0.0305213 20.88 0.00700003L21 5.80314e-08H25ZM26 16H4V23C3.99998 23.4779 4.17111 23.9401 4.48241 24.3027C4.7937 24.6654 5.22458 24.9046 5.697 24.977L5.851 24.995L6 25H24C24.5046 25.0002 24.9906 24.8096 25.3605 24.4665C25.7305 24.1234 25.9572 23.6532 25.995 23.15L26 23V16ZM10 11H7V14H10V11ZM24.245 2H21.754L20.325 7H25.674L24.245 2Z" fill="black"/>
</svg>
